<svg width="73" height="19" viewBox="0 0 73 19" fill="none" xmlns="http://www.w3.org/2000/svg">
<path d="M13.4451 17.7955H3.06515C2.20873 17.7955 1.38663 17.4321 0.806685 16.7999C0.226739 16.1678 -0.063238 15.3177 0.0115948 14.4645L0.794254 7.84666C0.934607 6.25247 2.24623 5.04843 3.85098 5.04843H4.88824V3.61398C4.88824 1.75919 6.39949 0.25 8.25672 0.25C10.114 0.25 11.6252 1.75914 11.6252 3.61398V5.04843H12.6625C14.2662 5.04843 15.5809 6.25145 15.7192 7.84887L16.5018 14.4667C16.5766 15.3199 16.2866 16.17 15.7067 16.8021C15.1267 17.4343 14.3015 17.7955 13.4451 17.7955ZM8.25668 5.35343C9.32963 5.35343 10.1994 4.483 10.1994 3.40927C10.1994 2.33554 9.32963 1.4651 8.25668 1.4651C7.18373 1.4651 6.31393 2.33554 6.31393 3.40927C6.31393 4.483 7.18373 5.35343 8.25668 5.35343ZM10.1994 13.5861V9.45478C10.1994 8.38105 9.32963 7.51062 8.25668 7.51062C7.18373 7.51062 6.31393 8.38105 6.31393 9.45478V13.5861C6.31393 14.6599 7.18373 15.5303 8.25668 15.5303C9.32963 15.5303 10.1994 14.6599 10.1994 13.5861Z" fill="#00804C"/>
<path d="M21.3864 17.5042V4.64243H23.4249V17.5042H21.3864ZM21.3379 2.62822V0.25H23.4734V2.62822H21.3379Z" fill="#00804C"/>
<path d="M31.7578 17.7955C30.6091 17.7955 29.6303 17.6094 28.8214 17.2373C28.0287 16.8652 27.4058 16.3556 26.9528 15.7084C26.516 15.0451 26.2652 14.2928 26.2005 13.4516L28.3361 13.306C28.4655 14.0825 28.7971 14.7054 29.331 15.1746C29.8649 15.6276 30.6738 15.854 31.7578 15.854C32.6314 15.854 33.3271 15.7165 33.8448 15.4415C34.3787 15.1503 34.6456 14.6892 34.6456 14.0582C34.6456 13.7185 34.5647 13.4354 34.4029 13.2089C34.2412 12.9824 33.9257 12.7882 33.4565 12.6265C32.9873 12.4485 32.2917 12.2786 31.3695 12.1168C30.1399 11.8903 29.1692 11.6153 28.4574 11.2917C27.7617 10.952 27.2602 10.5395 26.9528 10.0541C26.6616 9.55257 26.516 8.96206 26.516 8.28257C26.516 7.1339 26.9366 6.19555 27.7779 5.46753C28.6192 4.72332 29.8164 4.35122 31.3695 4.35122C32.4211 4.35122 33.3028 4.54536 34.0147 4.93364C34.7427 5.30574 35.3089 5.80727 35.7134 6.43823C36.134 7.05301 36.4091 7.7325 36.5385 8.47671L34.4029 8.62231C34.3059 8.16932 34.1279 7.77295 33.8691 7.4332C33.6102 7.07728 33.2705 6.80224 32.8498 6.6081C32.4292 6.39779 31.9277 6.29263 31.3452 6.29263C30.4231 6.29263 29.7436 6.47059 29.3068 6.82651C28.8699 7.18244 28.6515 7.63543 28.6515 8.1855C28.6515 8.60613 28.7486 8.95397 28.9427 9.229C29.1531 9.48786 29.4847 9.70626 29.9377 9.88423C30.3907 10.046 30.9974 10.1916 31.7578 10.321C33.0682 10.5475 34.0875 10.8226 34.8155 11.1461C35.5435 11.4697 36.0531 11.8661 36.3444 12.3353C36.6356 12.8044 36.7812 13.3788 36.7812 14.0582C36.7812 14.851 36.5547 15.5305 36.1017 16.0967C35.6649 16.6468 35.0663 17.0674 34.3059 17.3586C33.5617 17.6498 32.7123 17.7955 31.7578 17.7955Z" fill="#00804C"/>
<path d="M44.5868 17.7955C43.3734 17.7955 42.3218 17.5204 41.432 16.9704C40.5584 16.4203 39.8789 15.6437 39.3935 14.6407C38.9244 13.6214 38.6898 12.4323 38.6898 11.0733C38.6898 9.71435 38.9244 8.53333 39.3935 7.53027C39.8789 6.52721 40.5503 5.75065 41.4077 5.20058C42.2814 4.63434 43.3087 4.35122 44.4897 4.35122C45.606 4.35122 46.5929 4.61816 47.4504 5.15205C48.3078 5.66976 48.9711 6.43014 49.4403 7.4332C49.9257 8.43626 50.1683 9.65773 50.1683 11.0976V11.7043H40.8253C40.9062 13.0795 41.2702 14.1149 41.9174 14.8105C42.5807 15.5062 43.4705 15.854 44.5868 15.854C45.4281 15.854 46.1157 15.6599 46.6495 15.2716C47.1996 14.8672 47.5798 14.3414 47.7901 13.6942L49.9742 13.8641C49.6345 15.0128 48.9873 15.9592 48.0328 16.7034C47.0944 17.4314 45.9458 17.7955 44.5868 17.7955ZM40.8253 9.90849H47.9357C47.8387 8.66276 47.4746 7.74868 46.8437 7.16626C46.2289 6.58384 45.4442 6.29263 44.4897 6.29263C43.5028 6.29263 42.6858 6.60001 42.0387 7.21479C41.4077 7.81339 41.0033 8.71129 40.8253 9.90849Z" fill="#00804C"/>
<path d="M57.1398 17.5042C55.9749 17.5042 55.1094 17.2373 54.5431 16.7034C53.9931 16.1695 53.718 15.3363 53.718 14.2039V1.63325H55.7565V14.1553C55.7565 14.7377 55.8859 15.1422 56.1448 15.3687C56.4037 15.5952 56.8 15.7084 57.3339 15.7084H59.1782V17.5042H57.1398ZM51.8252 6.43823V4.64243H59.1782V6.43823H51.8252Z" fill="#00804C"/>
<path d="M65.1684 17.7955C63.8417 17.7955 62.782 17.4881 61.9893 16.8733C61.2127 16.2585 60.8245 15.4011 60.8245 14.3009C60.8245 13.2008 61.148 12.3353 61.7952 11.7043C62.4423 11.0733 63.4696 10.6284 64.8771 10.3696L69.4394 9.52021C69.4394 8.43626 69.1806 7.62734 68.6629 7.09346C68.1614 6.55957 67.401 6.29263 66.3817 6.29263C65.4919 6.29263 64.7882 6.49486 64.2705 6.89931C63.7527 7.2876 63.3968 7.85384 63.2027 8.59805L61.0429 8.42817C61.2855 7.21479 61.868 6.236 62.7901 5.4918C63.7285 4.73141 64.9257 4.35122 66.3817 4.35122C68.0319 4.35122 69.2938 4.82039 70.1675 5.75874C71.0411 6.68091 71.4779 7.959 71.4779 9.59302V14.9076C71.4779 15.1988 71.5265 15.4091 71.6235 15.5386C71.7368 15.6518 71.9147 15.7084 72.1574 15.7084H72.667V17.5042C72.6023 17.5204 72.4972 17.5285 72.3516 17.5285C72.2059 17.5447 72.0523 17.5528 71.8905 17.5528C71.308 17.5528 70.8308 17.4638 70.4587 17.2858C70.1028 17.0917 69.8439 16.8005 69.6821 16.4122C69.5203 16.0077 69.4394 15.4819 69.4394 14.8348L69.6821 14.8833C69.5689 15.4334 69.2938 15.9349 68.857 16.3879C68.4202 16.8248 67.8782 17.1726 67.2311 17.4314C66.584 17.6741 65.8964 17.7955 65.1684 17.7955ZM65.3625 15.9997C66.2199 15.9997 66.948 15.8379 67.5466 15.5143C68.1614 15.1746 68.6305 14.7216 68.9541 14.1553C69.2777 13.5729 69.4394 12.9258 69.4394 12.2139V11.2917L65.2654 12.0683C64.3918 12.2301 63.7851 12.4809 63.4454 12.8206C63.1218 13.1442 62.96 13.5729 62.96 14.1068C62.96 14.7054 63.1703 15.1746 63.591 15.5143C64.0278 15.8379 64.6183 15.9997 65.3625 15.9997Z" fill="#00804C"/>
<path d="M21.3864 17.5042V4.64243H23.4249V17.5042H21.3864ZM21.3379 2.62822V0.25H23.4734V2.62822H21.3379Z" stroke="#00804C" stroke-width="0.5"/>
<path d="M31.7578 17.7955C30.6091 17.7955 29.6303 17.6094 28.8214 17.2373C28.0287 16.8652 27.4058 16.3556 26.9528 15.7084C26.516 15.0451 26.2652 14.2928 26.2005 13.4516L28.3361 13.306C28.4655 14.0825 28.7971 14.7054 29.331 15.1746C29.8649 15.6276 30.6738 15.854 31.7578 15.854C32.6314 15.854 33.3271 15.7165 33.8448 15.4415C34.3787 15.1503 34.6456 14.6892 34.6456 14.0582C34.6456 13.7185 34.5647 13.4354 34.4029 13.2089C34.2412 12.9824 33.9257 12.7882 33.4565 12.6265C32.9873 12.4485 32.2917 12.2786 31.3695 12.1168C30.1399 11.8903 29.1692 11.6153 28.4574 11.2917C27.7617 10.952 27.2602 10.5395 26.9528 10.0541C26.6616 9.55257 26.516 8.96206 26.516 8.28257C26.516 7.1339 26.9366 6.19555 27.7779 5.46753C28.6192 4.72332 29.8164 4.35122 31.3695 4.35122C32.4211 4.35122 33.3028 4.54536 34.0147 4.93364C34.7427 5.30574 35.3089 5.80727 35.7134 6.43823C36.134 7.05301 36.4091 7.7325 36.5385 8.47671L34.4029 8.62231C34.3059 8.16932 34.1279 7.77295 33.8691 7.4332C33.6102 7.07728 33.2705 6.80224 32.8498 6.6081C32.4292 6.39779 31.9277 6.29263 31.3452 6.29263C30.4231 6.29263 29.7436 6.47059 29.3068 6.82651C28.8699 7.18244 28.6515 7.63543 28.6515 8.1855C28.6515 8.60613 28.7486 8.95397 28.9427 9.229C29.1531 9.48786 29.4847 9.70626 29.9377 9.88423C30.3907 10.046 30.9974 10.1916 31.7578 10.321C33.0682 10.5475 34.0875 10.8226 34.8155 11.1461C35.5435 11.4697 36.0531 11.8661 36.3444 12.3353C36.6356 12.8044 36.7812 13.3788 36.7812 14.0582C36.7812 14.851 36.5547 15.5305 36.1017 16.0967C35.6649 16.6468 35.0663 17.0674 34.3059 17.3586C33.5617 17.6498 32.7123 17.7955 31.7578 17.7955Z" stroke="#00804C" stroke-width="0.5"/>
<path d="M44.5868 17.7955C43.3734 17.7955 42.3218 17.5204 41.432 16.9704C40.5584 16.4203 39.8789 15.6437 39.3935 14.6407C38.9244 13.6214 38.6898 12.4323 38.6898 11.0733C38.6898 9.71435 38.9244 8.53333 39.3935 7.53027C39.8789 6.52721 40.5503 5.75065 41.4077 5.20058C42.2814 4.63434 43.3087 4.35122 44.4897 4.35122C45.606 4.35122 46.5929 4.61816 47.4504 5.15205C48.3078 5.66976 48.9711 6.43014 49.4403 7.4332C49.9257 8.43626 50.1683 9.65773 50.1683 11.0976V11.7043H40.8253C40.9062 13.0795 41.2702 14.1149 41.9174 14.8105C42.5807 15.5062 43.4705 15.854 44.5868 15.854C45.4281 15.854 46.1157 15.6599 46.6495 15.2716C47.1996 14.8672 47.5798 14.3414 47.7901 13.6942L49.9742 13.8641C49.6345 15.0128 48.9873 15.9592 48.0328 16.7034C47.0944 17.4314 45.9458 17.7955 44.5868 17.7955ZM40.8253 9.90849H47.9357C47.8387 8.66276 47.4746 7.74868 46.8437 7.16626C46.2289 6.58384 45.4442 6.29263 44.4897 6.29263C43.5028 6.29263 42.6858 6.60001 42.0387 7.21479C41.4077 7.81339 41.0033 8.71129 40.8253 9.90849Z" stroke="#00804C" stroke-width="0.5"/>
<path d="M57.1398 17.5042C55.9749 17.5042 55.1094 17.2373 54.5431 16.7034C53.9931 16.1695 53.718 15.3363 53.718 14.2039V1.63325H55.7565V14.1553C55.7565 14.7377 55.8859 15.1422 56.1448 15.3687C56.4037 15.5952 56.8 15.7084 57.3339 15.7084H59.1782V17.5042H57.1398ZM51.8252 6.43823V4.64243H59.1782V6.43823H51.8252Z" stroke="#00804C" stroke-width="0.5"/>
<path d="M65.1684 17.7955C63.8417 17.7955 62.782 17.4881 61.9893 16.8733C61.2127 16.2585 60.8245 15.4011 60.8245 14.3009C60.8245 13.2008 61.148 12.3353 61.7952 11.7043C62.4423 11.0733 63.4696 10.6284 64.8771 10.3696L69.4394 9.52021C69.4394 8.43626 69.1806 7.62734 68.6629 7.09346C68.1614 6.55957 67.401 6.29263 66.3817 6.29263C65.4919 6.29263 64.7882 6.49486 64.2705 6.89931C63.7527 7.2876 63.3968 7.85384 63.2027 8.59805L61.0429 8.42817C61.2855 7.21479 61.868 6.236 62.7901 5.4918C63.7285 4.73141 64.9257 4.35122 66.3817 4.35122C68.0319 4.35122 69.2938 4.82039 70.1675 5.75874C71.0411 6.68091 71.4779 7.959 71.4779 9.59302V14.9076C71.4779 15.1988 71.5265 15.4091 71.6235 15.5386C71.7368 15.6518 71.9147 15.7084 72.1574 15.7084H72.667V17.5042C72.6023 17.5204 72.4972 17.5285 72.3516 17.5285C72.2059 17.5447 72.0523 17.5528 71.8905 17.5528C71.308 17.5528 70.8308 17.4638 70.4587 17.2858C70.1028 17.0917 69.8439 16.8005 69.6821 16.4122C69.5203 16.0077 69.4394 15.4819 69.4394 14.8348L69.6821 14.8833C69.5689 15.4334 69.2938 15.9349 68.857 16.3879C68.4202 16.8248 67.8782 17.1726 67.2311 17.4314C66.584 17.6741 65.8964 17.7955 65.1684 17.7955ZM65.3625 15.9997C66.2199 15.9997 66.948 15.8379 67.5466 15.5143C68.1614 15.1746 68.6305 14.7216 68.9541 14.1553C69.2777 13.5729 69.4394 12.9258 69.4394 12.2139V11.2917L65.2654 12.0683C64.3918 12.2301 63.7851 12.4809 63.4454 12.8206C63.1218 13.1442 62.96 13.5729 62.96 14.1068C62.96 14.7054 63.1703 15.1746 63.591 15.5143C64.0278 15.8379 64.6183 15.9997 65.3625 15.9997Z" stroke="#00804C" stroke-width="0.5"/>
</svg>
